<svg width="25" height="19" viewBox="0 0 25 19" fill="none" xmlns="http://www.w3.org/2000/svg">
<path d="M7.69141 10.1562H9.49609L8.59375 7.55762L7.69141 10.1562ZM17.1875 9.375C16.5415 9.375 16.0156 9.90088 16.0156 10.5469C16.0156 11.1929 16.5415 11.7188 17.1875 11.7188C17.8335 11.7188 18.3594 11.1929 18.3594 10.5469C18.3594 9.90088 17.8335 9.375 17.1875 9.375ZM22.6562 0H2.34375C1.0498 0 0 1.0498 0 2.34375V16.4062C0 17.7002 1.0498 18.75 2.34375 18.75H22.6562C23.9502 18.75 25 17.7002 25 16.4062V2.34375C25 1.0498 23.9502 0 22.6562 0ZM12.2354 14.0625H11.4082C11.0757 14.0625 10.7793 13.8516 10.6699 13.5376L10.3101 12.5H6.87793L6.51758 13.5376C6.46431 13.691 6.36459 13.8239 6.23228 13.918C6.09997 14.012 5.94164 14.0626 5.7793 14.0625H4.95215C4.41455 14.0625 4.0376 13.5327 4.21387 13.0249L6.83594 5.47461C6.91582 5.24468 7.06534 5.04534 7.26371 4.90429C7.46208 4.76323 7.69946 4.68746 7.94287 4.6875H9.24463C9.48811 4.68746 9.72555 4.76329 9.92393 4.90444C10.1223 5.04559 10.2718 5.24506 10.3516 5.4751L12.9731 13.0249C13.1494 13.5327 12.7725 14.0625 12.2354 14.0625ZM20.7031 13.2812C20.7031 13.7129 20.3535 14.0625 19.9219 14.0625H19.1406C18.9038 14.0625 18.6992 13.9517 18.5557 13.7852C18.1348 13.9639 17.6724 14.0625 17.1875 14.0625C15.249 14.0625 13.6719 12.4854 13.6719 10.5469C13.6719 8.6084 15.249 7.03125 17.1875 7.03125C17.6006 7.03125 17.9912 7.11572 18.3594 7.24707V5.46875C18.3594 5.03711 18.709 4.6875 19.1406 4.6875H19.9219C20.3535 4.6875 20.7031 5.03711 20.7031 5.46875V13.2812Z" fill="url(#paint0_linear_361_312)"/>
<defs>
<linearGradient id="paint0_linear_361_312" x1="0" y1="0" x2="18" y2="24" gradientUnits="userSpaceOnUse">
<stop stop-color="#F97794"/>
<stop offset="1" stop-color="#623AA2"/>
</linearGradient>
</defs>
</svg>
