<svg width="65" height="52" viewBox="0 0 65 52" fill="none" xmlns="http://www.w3.org/2000/svg">
<path d="M61.75 0H16.25C15.388 0 14.5614 0.34241 13.9519 0.951903C13.3424 1.5614 13 2.38805 13 3.25V13H29.25V6.5H48.75V39H61.75C62.612 39 63.4386 38.6576 64.0481 38.0481C64.6576 37.4386 65 36.612 65 35.75V3.25C65 2.38805 64.6576 1.5614 64.0481 0.951903C63.4386 0.34241 62.612 0 61.75 0V0ZM23.5625 10.4609C23.5625 10.7034 23.4662 10.9359 23.2948 11.1073C23.1234 11.2787 22.8909 11.375 22.6484 11.375H19.6016C19.3591 11.375 19.1266 11.2787 18.9552 11.1073C18.7838 10.9359 18.6875 10.7034 18.6875 10.4609V7.41406C18.6875 7.17164 18.7838 6.93914 18.9552 6.76772C19.1266 6.5963 19.3591 6.5 19.6016 6.5H22.6484C22.8909 6.5 23.1234 6.5963 23.2948 6.76772C23.4662 6.93914 23.5625 7.17164 23.5625 7.41406V10.4609ZM59.3125 31.5859C59.3125 31.8284 59.2162 32.0609 59.0448 32.2323C58.8734 32.4037 58.6409 32.5 58.3984 32.5H55.3516C55.1091 32.5 54.8766 32.4037 54.7052 32.2323C54.5338 32.0609 54.4375 31.8284 54.4375 31.5859V28.5391C54.4375 28.2966 54.5338 28.0641 54.7052 27.8927C54.8766 27.7213 55.1091 27.625 55.3516 27.625H58.3984C58.6409 27.625 58.8734 27.7213 59.0448 27.8927C59.2162 28.0641 59.3125 28.2966 59.3125 28.5391V31.5859ZM59.3125 21.0234C59.3125 21.2659 59.2162 21.4984 59.0448 21.6698C58.8734 21.8412 58.6409 21.9375 58.3984 21.9375H55.3516C55.1091 21.9375 54.8766 21.8412 54.7052 21.6698C54.5338 21.4984 54.4375 21.2659 54.4375 21.0234V17.9766C54.4375 17.7341 54.5338 17.5016 54.7052 17.3302C54.8766 17.1588 55.1091 17.0625 55.3516 17.0625H58.3984C58.6409 17.0625 58.8734 17.1588 59.0448 17.3302C59.2162 17.5016 59.3125 17.7341 59.3125 17.9766V21.0234ZM59.3125 10.4609C59.3125 10.7034 59.2162 10.9359 59.0448 11.1073C58.8734 11.2787 58.6409 11.375 58.3984 11.375H55.3516C55.1091 11.375 54.8766 11.2787 54.7052 11.1073C54.5338 10.9359 54.4375 10.7034 54.4375 10.4609V7.41406C54.4375 7.17164 54.5338 6.93914 54.7052 6.76772C54.8766 6.5963 55.1091 6.5 55.3516 6.5H58.3984C58.6409 6.5 58.8734 6.5963 59.0448 6.76772C59.2162 6.93914 59.3125 7.17164 59.3125 7.41406V10.4609ZM42.25 16.25H3.25C2.38805 16.25 1.5614 16.5924 0.951903 17.2019C0.34241 17.8114 0 18.638 0 19.5L0 48.75C0 49.612 0.34241 50.4386 0.951903 51.0481C1.5614 51.6576 2.38805 52 3.25 52H42.25C43.112 52 43.9386 51.6576 44.5481 51.0481C45.1576 50.4386 45.5 49.612 45.5 48.75V19.5C45.5 18.638 45.1576 17.8114 44.5481 17.2019C43.9386 16.5924 43.112 16.25 42.25 16.25ZM9.75 22.75C10.3928 22.75 11.0211 22.9406 11.5556 23.2977C12.0901 23.6548 12.5066 24.1624 12.7526 24.7563C12.9986 25.3501 13.063 26.0036 12.9376 26.634C12.8122 27.2645 12.5026 27.8436 12.0481 28.2981C11.5936 28.7526 11.0145 29.0622 10.384 29.1876C9.7536 29.313 9.10014 29.2486 8.50628 29.0026C7.91242 28.7566 7.40484 28.3401 7.04772 27.8056C6.69061 27.2711 6.5 26.6428 6.5 26C6.5 25.138 6.84241 24.3114 7.4519 23.7019C8.0614 23.0924 8.88805 22.75 9.75 22.75ZM39 45.5H6.5V42.25L13 35.75L16.25 39L29.25 26L39 35.75V45.5Z" fill="url(#paint0_linear_361_371)"/>
<defs>
<linearGradient id="paint0_linear_361_371" x1="0" y1="0" x2="50.7317" y2="63.4146" gradientUnits="userSpaceOnUse">
<stop stop-color="#F97794"/>
<stop offset="1" stop-color="#623AA2"/>
</linearGradient>
</defs>
</svg>
