<svg width="25" height="23" viewBox="0 0 25 23" fill="none" xmlns="http://www.w3.org/2000/svg">
<path d="M21.5901 14.416H9.24318L9.51885 15.8357H20.8243C21.473 15.8357 21.9537 16.4701 21.81 17.1364L21.5776 18.2134C22.3649 18.6159 22.9077 19.466 22.9077 20.4496C22.9077 21.8339 21.8329 22.9537 20.5143 22.9338C19.2582 22.9147 18.2252 21.841 18.1913 20.5182C18.1727 19.7957 18.4476 19.1408 18.899 18.675H10.0689C10.5059 19.126 10.7775 19.7542 10.7775 20.4496C10.7775 21.861 9.66016 22.9975 8.30638 22.9313C7.10431 22.8725 6.12669 21.8495 6.06351 20.5836C6.01474 19.6061 6.50306 18.7445 7.24499 18.295L4.28627 3.05856H1.34288C0.784597 3.05856 0.332031 2.58186 0.332031 1.9938V1.28397C0.332031 0.695909 0.784597 0.219208 1.34288 0.219208H5.66128C6.14147 0.219208 6.55537 0.575059 6.65162 1.07057L7.03768 3.05856H23.5812C24.2298 3.05856 24.7106 3.69303 24.5669 4.3593L22.5758 13.5872C22.4712 14.072 22.0621 14.416 21.5901 14.416ZM17.3071 8.73727H15.4948V6.07538C15.4948 5.78137 15.2685 5.543 14.9894 5.543H13.9785C13.6994 5.543 13.4731 5.78137 13.4731 6.07538V8.73727H11.6608C11.2105 8.73727 10.985 9.31073 11.3034 9.64609L14.1266 12.6198C14.3239 12.8277 14.6439 12.8277 14.8414 12.6198L17.6645 9.64609C17.9829 9.31073 17.7574 8.73727 17.3071 8.73727Z" fill="black"/>
</svg>
