<svg width="25" height="23" viewBox="0 0 25 23" fill="none" xmlns="http://www.w3.org/2000/svg">
<path d="M21.2581 14.1968H8.91115L9.18682 15.6165H20.4923C21.1409 15.6165 21.6217 16.2509 21.478 16.9172L21.2456 17.9942C22.0328 18.3967 22.5757 19.2467 22.5757 20.2304C22.5757 21.6147 21.5008 22.7345 20.1823 22.7146C18.9262 22.6955 17.8931 21.6218 17.8592 20.299C17.8407 19.5765 18.1155 18.9215 18.567 18.4558H9.73685C10.1739 18.9068 10.4455 19.535 10.4455 20.2304C10.4455 21.6418 9.32813 22.7783 7.97435 22.7121C6.77228 22.6533 5.79466 21.6302 5.73148 20.3644C5.68271 19.3869 6.17103 18.5253 6.91295 18.0758L3.95424 2.83935H1.01085C0.452566 2.83935 0 2.36265 0 1.7746V1.06476C0 0.476701 0.452566 0 1.01085 0H5.32925C5.80944 0 6.22334 0.355851 6.31958 0.851363L6.70564 2.83935H23.2491C23.8978 2.83935 24.3786 3.47382 24.2348 4.14009L22.2438 13.368C22.1392 13.8528 21.73 14.1968 21.2581 14.1968ZM16.9751 8.51806H15.1628V5.85617C15.1628 5.56216 14.9365 5.32379 14.6573 5.32379H13.6465C13.3674 5.32379 13.1411 5.56216 13.1411 5.85617V8.51806H11.3287C10.8784 8.51806 10.6529 9.09153 10.9713 9.42688L13.7945 12.4006C13.9919 12.6085 14.3119 12.6085 14.5093 12.4006L17.3325 9.42688C17.6509 9.09153 17.4254 8.51806 16.9751 8.51806Z" fill="url(#paint0_linear_335_1567)"/>
<defs>
<linearGradient id="paint0_linear_335_1567" x1="0" y1="0" x2="22.6657" y2="24.2079" gradientUnits="userSpaceOnUse">
<stop stop-color="#F97794"/>
<stop offset="1" stop-color="#623AA2"/>
</linearGradient>
</defs>
</svg>
