<svg width="40" height="24" viewBox="0 0 40 24" fill="none" xmlns="http://www.w3.org/2000/svg">
<path d="M25.4077 2.56653H14.5923V21.4331H25.4077V2.56653Z" fill="#FF5F00"/>
<path d="M15.279 11.9998C15.279 8.16652 17.133 4.76653 19.9828 2.56654C17.8884 0.966542 15.2446 -0.00012207 12.3605 -0.00012207C5.5279 -0.00012207 0 5.36653 0 11.9998C0 18.6332 5.5279 23.9998 12.3605 23.9998C15.2446 23.9998 17.8884 23.0332 19.9828 21.4332C17.133 19.2665 15.279 15.8332 15.279 11.9998Z" fill="#EB001B"/>
<path d="M40 11.9998C40 18.6332 34.4721 23.9998 27.6395 23.9998C24.7554 23.9998 22.1116 23.0332 20.0172 21.4332C22.9013 19.2332 24.7211 15.8332 24.7211 11.9998C24.7211 8.16652 22.867 4.76653 20.0172 2.56654C22.1116 0.966542 24.7554 -0.00012207 27.6395 -0.00012207C34.4721 -0.00012207 40 5.39987 40 11.9998Z" fill="#F79E1B"/>
</svg>
