<svg width="8" height="25" viewBox="0 0 8 25" fill="none" xmlns="http://www.w3.org/2000/svg">
<path d="M3.61963 8.95912C5.5055 8.95912 7.03125 10.5662 7.03125 12.5527C7.03125 14.5391 5.5055 16.1462 3.61963 16.1462C1.73376 16.1462 0.208008 14.5391 0.208008 12.5527C0.208008 10.5662 1.73376 8.95912 3.61963 8.95912ZM0.208008 3.76842C0.208008 5.75486 1.73376 7.36198 3.61963 7.36198C5.5055 7.36198 7.03125 5.75486 7.03125 3.76842C7.03125 1.78199 5.5055 0.174866 3.61963 0.174866C1.73376 0.174866 0.208008 1.78199 0.208008 3.76842ZM0.208008 21.3369C0.208008 23.3234 1.73376 24.9305 3.61963 24.9305C5.5055 24.9305 7.03125 23.3234 7.03125 21.3369C7.03125 19.3505 5.5055 17.7434 3.61963 17.7434C1.73376 17.7434 0.208008 19.3505 0.208008 21.3369Z" fill="black"/>
</svg>
