<svg width="39" height="14" viewBox="0 0 39 14" fill="none" xmlns="http://www.w3.org/2000/svg">
<path d="M6.0498 8.16699C6.0498 7.77962 5.91309 7.4834 5.63965 7.27832C5.36621 7.06868 4.87402 6.84993 4.16309 6.62207C3.45215 6.38965 2.88932 6.16178 2.47461 5.93848C1.3444 5.3278 0.779297 4.50521 0.779297 3.4707C0.779297 2.93294 0.929688 2.45443 1.23047 2.03516C1.53581 1.61133 1.97103 1.28092 2.53613 1.04395C3.10579 0.806966 3.74382 0.688477 4.4502 0.688477C5.16113 0.688477 5.7946 0.818359 6.35059 1.07812C6.90658 1.33333 7.33724 1.69564 7.64258 2.16504C7.95247 2.63444 8.10742 3.16764 8.10742 3.76465H6.05664C6.05664 3.30892 5.91309 2.95573 5.62598 2.70508C5.33887 2.44987 4.93555 2.32227 4.41602 2.32227C3.91471 2.32227 3.52507 2.42936 3.24707 2.64355C2.96908 2.85319 2.83008 3.13118 2.83008 3.47754C2.83008 3.80111 2.99186 4.07227 3.31543 4.29102C3.64355 4.50977 4.12435 4.71484 4.75781 4.90625C5.92448 5.25716 6.77441 5.69238 7.30762 6.21191C7.84082 6.73145 8.10742 7.37858 8.10742 8.15332C8.10742 9.01465 7.78158 9.69141 7.12988 10.1836C6.47819 10.6712 5.60091 10.915 4.49805 10.915C3.73242 10.915 3.03516 10.776 2.40625 10.498C1.77734 10.2155 1.29655 9.8304 0.963867 9.34277C0.635742 8.85514 0.47168 8.29004 0.47168 7.64746H2.5293C2.5293 8.74577 3.18555 9.29492 4.49805 9.29492C4.98568 9.29492 5.36621 9.19694 5.63965 9.00098C5.91309 8.80046 6.0498 8.52246 6.0498 8.16699ZM11.2998 4.18848C11.8239 3.55957 12.4824 3.24512 13.2754 3.24512C14.8796 3.24512 15.693 4.17708 15.7158 6.04102V10.7783H13.7402V6.0957C13.7402 5.67188 13.6491 5.3597 13.4668 5.15918C13.2845 4.9541 12.9814 4.85156 12.5576 4.85156C11.9788 4.85156 11.5596 5.07487 11.2998 5.52148V10.7783H9.32422V0.27832H11.2998V4.18848ZM16.8984 7.01172C16.8984 6.27799 17.0397 5.62402 17.3223 5.0498C17.6048 4.47559 18.0104 4.03125 18.5391 3.7168C19.0723 3.40234 19.6898 3.24512 20.3916 3.24512C21.3896 3.24512 22.2031 3.55046 22.832 4.16113C23.4655 4.77181 23.8187 5.60124 23.8916 6.64941L23.9053 7.15527C23.9053 8.29004 23.5885 9.2015 22.9551 9.88965C22.3216 10.5732 21.4717 10.915 20.4053 10.915C19.3389 10.915 18.4867 10.5732 17.8486 9.88965C17.2152 9.20605 16.8984 8.27637 16.8984 7.10059V7.01172ZM18.874 7.15527C18.874 7.8571 19.0062 8.39486 19.2705 8.76855C19.5348 9.1377 19.9131 9.32227 20.4053 9.32227C20.8838 9.32227 21.2575 9.13997 21.5264 8.77539C21.7952 8.40625 21.9297 7.81836 21.9297 7.01172C21.9297 6.32357 21.7952 5.79036 21.5264 5.41211C21.2575 5.03385 20.8792 4.84473 20.3916 4.84473C19.9085 4.84473 19.5348 5.03385 19.2705 5.41211C19.0062 5.78581 18.874 6.36686 18.874 7.15527ZM31.7803 7.14844C31.7803 8.28776 31.5205 9.2015 31.001 9.88965C30.486 10.5732 29.7887 10.915 28.9092 10.915C28.1618 10.915 27.5579 10.6553 27.0977 10.1357V13.6221H25.1221V3.38184H26.9541L27.0225 4.10645C27.501 3.53223 28.1253 3.24512 28.8955 3.24512C29.807 3.24512 30.5156 3.58236 31.0215 4.25684C31.5273 4.93132 31.7803 5.861 31.7803 7.0459V7.14844ZM29.8047 7.00488C29.8047 6.31673 29.6816 5.78581 29.4355 5.41211C29.194 5.03841 28.8408 4.85156 28.376 4.85156C27.7562 4.85156 27.3301 5.08854 27.0977 5.5625V8.59082C27.3392 9.07845 27.7699 9.32227 28.3896 9.32227C29.333 9.32227 29.8047 8.5498 29.8047 7.00488ZM37.0166 8.73438C37.0166 8.49284 36.8958 8.30371 36.6543 8.16699C36.4173 8.02572 36.0345 7.90039 35.5059 7.79102C33.7467 7.42188 32.8672 6.67448 32.8672 5.54883C32.8672 4.89258 33.1383 4.3457 33.6807 3.9082C34.2275 3.46615 34.9408 3.24512 35.8203 3.24512C36.7591 3.24512 37.5088 3.46615 38.0693 3.9082C38.6344 4.35026 38.917 4.92448 38.917 5.63086H36.9414C36.9414 5.34831 36.8503 5.11589 36.668 4.93359C36.4857 4.74674 36.2008 4.65332 35.8135 4.65332C35.4808 4.65332 35.2233 4.72852 35.041 4.87891C34.8587 5.0293 34.7676 5.2207 34.7676 5.45312C34.7676 5.67188 34.8701 5.84961 35.0752 5.98633C35.2848 6.11849 35.6357 6.2347 36.1279 6.33496C36.6201 6.43066 37.0348 6.54004 37.3721 6.66309C38.4157 7.0459 38.9375 7.70898 38.9375 8.65234C38.9375 9.32682 38.6481 9.8737 38.0693 10.293C37.4906 10.7077 36.7432 10.915 35.8271 10.915C35.2074 10.915 34.6559 10.8057 34.1729 10.5869C33.6943 10.3636 33.3184 10.0605 33.0449 9.67773C32.7715 9.29036 32.6348 8.87337 32.6348 8.42676H34.5078C34.526 8.77767 34.6559 9.04655 34.8975 9.2334C35.139 9.42025 35.4626 9.51367 35.8682 9.51367C36.2464 9.51367 36.5312 9.44303 36.7227 9.30176C36.9186 9.15592 37.0166 8.9668 37.0166 8.73438Z" fill="url(#paint0_linear_335_1547)"/>
<defs>
<linearGradient id="paint0_linear_335_1547" x1="0" y1="-2.22168" x2="11.0345" y2="25.3645" gradientUnits="userSpaceOnUse">
<stop stop-color="#F97794"/>
<stop offset="1" stop-color="#623AA2"/>
</linearGradient>
</defs>
</svg>
