<svg width="219" height="211" viewBox="0 0 219 211" fill="none" xmlns="http://www.w3.org/2000/svg">
<path fill-rule="evenodd" clip-rule="evenodd" d="M114.476 0.148804V0.247851V10.1526C136.217 12.8269 151.619 32.5869 148.945 54.3279C146.667 72.3545 132.503 86.6669 114.476 88.7964V98.7012C141.714 95.9774 161.524 71.8098 158.8 44.5717C156.571 21.0478 137.901 2.47642 114.476 0.148804ZM104.571 0.297578C94.9143 1.23853 85.7029 4.95282 78.1753 11.1928L85.2572 18.5223C90.8039 14.0652 97.4896 11.1928 104.571 10.2023V0.297578ZM71.1924 18.1754C64.9524 25.7031 61.2381 34.865 60.2477 44.5716H70.1524C71.0934 37.5393 73.8667 30.8535 78.2743 25.2574L71.1924 18.1754ZM126.857 32.1904L102.69 56.358L92.1905 45.859L86.941 51.1085L102.69 66.8571L132.107 37.4399L126.857 32.1904ZM60.2972 54.4763C61.2877 64.183 65.101 73.3449 71.242 80.8725L78.2743 73.7906C73.9162 68.1944 71.0934 61.5087 70.202 54.4763H60.2972ZM85.2572 81.0708L78.1753 87.8556C85.6534 94.0956 94.8648 98.008 104.571 99.048V89.1432C97.5391 88.2518 90.8534 85.4289 85.2572 81.0708Z" fill="white"/>
<mask id="mask0_2_1504" style="mask-type:alpha" maskUnits="userSpaceOnUse" x="60" y="0" width="100" height="100">
<path fill-rule="evenodd" clip-rule="evenodd" d="M114.476 0.148804V0.247851V10.1526C136.217 12.8269 151.619 32.5869 148.945 54.3279C146.667 72.3545 132.503 86.6669 114.476 88.7964V98.7012C141.714 95.9774 161.524 71.8098 158.8 44.5717C156.571 21.0478 137.901 2.47642 114.476 0.148804ZM104.571 0.297578C94.9143 1.23853 85.7029 4.95282 78.1753 11.1928L85.2572 18.5223C90.8039 14.0652 97.4896 11.1928 104.571 10.2023V0.297578ZM71.1924 18.1754C64.9524 25.7031 61.2381 34.865 60.2477 44.5716H70.1524C71.0934 37.5393 73.8667 30.8535 78.2743 25.2574L71.1924 18.1754ZM126.857 32.1904L102.69 56.358L92.1905 45.859L86.941 51.1085L102.69 66.8571L132.107 37.4399L126.857 32.1904ZM60.2972 54.4763C61.2877 64.183 65.101 73.3449 71.242 80.8725L78.2743 73.7906C73.9162 68.1944 71.0934 61.5087 70.202 54.4763H60.2972ZM85.2572 81.0708L78.1753 87.8556C85.6534 94.0956 94.8648 98.008 104.571 99.048V89.1432C97.5391 88.2518 90.8534 85.4289 85.2572 81.0708Z" fill="white"/>
</mask>
<g mask="url(#mask0_2_1504)">
</g>
<path d="M58.1836 150.965C58.3154 154.949 61.6699 157.352 66.709 157.352C71.9971 157.352 75.2344 154.744 75.2344 150.613C75.2344 147.405 73.2861 145.604 68.8184 144.71L66.5771 144.256C64.0869 143.758 63.0615 142.952 63.0615 141.648C63.0615 140.096 64.5264 139.07 66.709 139.07C68.9355 139.07 70.5029 140.154 70.6494 141.956H74.8242C74.751 138.074 71.6455 135.496 66.709 135.496C62.0068 135.496 58.6377 138.06 58.6377 141.927C58.6377 145.076 60.7031 147.098 64.9219 147.933L67.1484 148.372C69.7998 148.914 70.7959 149.705 70.7959 151.097C70.7959 152.649 69.1846 153.792 66.8262 153.792C64.4238 153.792 62.6367 152.737 62.3584 150.965H58.1836ZM92.0801 141.297H87.8027V150.291C87.8027 152.371 86.6162 153.733 84.7119 153.733C82.8223 153.733 81.7822 152.62 81.7822 150.525V141.297H77.5049V151.419C77.5049 155.081 79.7607 157.293 83.1592 157.293C85.5322 157.293 87.085 156.15 87.8613 154.173H87.9492V157H92.0801V141.297ZM109.131 147.142C108.94 143.582 106.245 140.96 101.997 140.96C97.2949 140.96 94.292 144.095 94.292 149.134C94.292 154.261 97.2949 157.337 102.026 157.337C106.157 157.337 108.926 154.949 109.146 151.243H105.161C104.897 152.957 103.784 153.982 102.07 153.982C99.9463 153.982 98.6279 152.225 98.6279 149.134C98.6279 146.102 99.9463 144.314 102.056 144.314C103.813 144.314 104.912 145.486 105.161 147.142H109.131ZM125.479 147.142C125.288 143.582 122.593 140.96 118.345 140.96C113.643 140.96 110.64 144.095 110.64 149.134C110.64 154.261 113.643 157.337 118.374 157.337C122.505 157.337 125.273 154.949 125.493 151.243H121.509C121.245 152.957 120.132 153.982 118.418 153.982C116.294 153.982 114.976 152.225 114.976 149.134C114.976 146.102 116.294 144.314 118.403 144.314C120.161 144.314 121.26 145.486 121.509 147.142H125.479ZM137.959 152.195C137.563 153.396 136.362 154.173 134.795 154.173C132.612 154.173 131.191 152.635 131.191 150.394V150.13H142.017V148.826C142.017 144.051 139.131 140.96 134.561 140.96C129.917 140.96 126.987 144.212 126.987 149.222C126.987 154.246 129.888 157.337 134.722 157.337C138.604 157.337 141.416 155.271 141.885 152.195H137.959ZM134.604 144.124C136.509 144.124 137.812 145.501 137.9 147.508H131.235C131.382 145.545 132.729 144.124 134.604 144.124ZM143.965 145.911C143.965 148.27 145.503 149.793 148.535 150.438L151.216 150.994C152.754 151.346 153.296 151.814 153.296 152.649C153.296 153.675 152.3 154.334 150.688 154.334C148.989 154.334 148.008 153.602 147.744 152.225H143.569C143.848 155.315 146.353 157.337 150.688 157.337C154.731 157.337 157.559 155.301 157.559 152.21C157.559 149.91 156.211 148.621 152.93 147.933L150.249 147.361C148.667 147.024 148.081 146.482 148.081 145.677C148.081 144.637 149.062 143.963 150.542 143.963C152.124 143.963 153.076 144.827 153.208 146.102H157.148C157.061 143.025 154.57 140.96 150.542 140.96C146.543 140.96 143.965 142.923 143.965 145.911ZM160.825 135.862L161.177 150.042H164.868L165.22 135.862H160.825ZM163.022 157.366C164.355 157.366 165.41 156.355 165.41 155.066C165.41 153.777 164.355 152.767 163.022 152.767C161.689 152.767 160.635 153.777 160.635 155.066C160.635 156.355 161.689 157.366 163.022 157.366Z" fill="white"/>
<path d="M9.98242 179.044L12.5801 174.047H14.0703L10.6387 180.288V184H9.32617V180.288L5.89453 174.047H7.39844L9.98242 179.044ZM14.3711 180.233C14.3711 179.509 14.5124 178.857 14.7949 178.278C15.082 177.7 15.4785 177.253 15.9844 176.938C16.4948 176.624 17.0758 176.467 17.7275 176.467C18.7347 176.467 19.5482 176.815 20.168 177.513C20.7923 178.21 21.1045 179.137 21.1045 180.295V180.384C21.1045 181.104 20.9655 181.751 20.6875 182.325C20.4141 182.895 20.0199 183.339 19.5049 183.658C18.9945 183.977 18.4066 184.137 17.7412 184.137C16.7386 184.137 15.9251 183.788 15.3008 183.091C14.681 182.394 14.3711 181.471 14.3711 180.322V180.233ZM15.6426 180.384C15.6426 181.204 15.8317 181.863 16.21 182.359C16.5928 182.856 17.1032 183.104 17.7412 183.104C18.3838 183.104 18.8942 182.854 19.2725 182.353C19.6507 181.847 19.8398 181.14 19.8398 180.233C19.8398 179.422 19.6462 178.766 19.2588 178.265C18.876 177.759 18.3656 177.506 17.7275 177.506C17.1032 177.506 16.5996 177.754 16.2168 178.251C15.834 178.748 15.6426 179.459 15.6426 180.384ZM27.2568 183.269C26.7646 183.847 26.0423 184.137 25.0898 184.137C24.3014 184.137 23.6999 183.909 23.2852 183.453C22.875 182.993 22.6676 182.314 22.6631 181.416V176.604H23.9277V181.382C23.9277 182.503 24.3835 183.063 25.2949 183.063C26.2611 183.063 26.9036 182.703 27.2227 181.983V176.604H28.4873V184H27.2842L27.2568 183.269ZM38.1943 182.038C38.1943 181.696 38.0645 181.432 37.8047 181.245C37.5495 181.054 37.1006 180.89 36.458 180.753C35.82 180.616 35.3118 180.452 34.9336 180.261C34.5599 180.069 34.2819 179.841 34.0996 179.577C33.9219 179.313 33.833 178.998 33.833 178.634C33.833 178.028 34.0882 177.515 34.5986 177.096C35.1136 176.676 35.7699 176.467 36.5674 176.467C37.4059 176.467 38.085 176.683 38.6045 177.116C39.1286 177.549 39.3906 178.103 39.3906 178.777H38.1191C38.1191 178.431 37.971 178.132 37.6748 177.882C37.3831 177.631 37.014 177.506 36.5674 177.506C36.1071 177.506 35.7471 177.606 35.4873 177.807C35.2275 178.007 35.0977 178.269 35.0977 178.593C35.0977 178.898 35.2184 179.128 35.46 179.283C35.7015 179.438 36.1367 179.586 36.7656 179.728C37.3991 179.869 37.9118 180.037 38.3037 180.233C38.6956 180.429 38.985 180.666 39.1719 180.944C39.3633 181.218 39.459 181.553 39.459 181.949C39.459 182.61 39.1947 183.141 38.666 183.542C38.1374 183.938 37.4515 184.137 36.6084 184.137C36.016 184.137 35.4919 184.032 35.0361 183.822C34.5804 183.613 34.2227 183.321 33.9629 182.947C33.7077 182.569 33.5801 182.161 33.5801 181.724H34.8447C34.8675 182.147 35.0361 182.485 35.3506 182.735C35.6696 182.981 36.0889 183.104 36.6084 183.104C37.0869 183.104 37.4697 183.009 37.7568 182.817C38.0485 182.621 38.1943 182.362 38.1943 182.038ZM45.6729 183.269C45.1807 183.847 44.4583 184.137 43.5059 184.137C42.7174 184.137 42.1159 183.909 41.7012 183.453C41.291 182.993 41.0837 182.314 41.0791 181.416V176.604H42.3438V181.382C42.3438 182.503 42.7995 183.063 43.7109 183.063C44.6771 183.063 45.3197 182.703 45.6387 181.983V176.604H46.9033V184H45.7002L45.6729 183.269ZM51.7979 183.104C52.249 183.104 52.6432 182.968 52.9805 182.694C53.3177 182.421 53.5046 182.079 53.541 181.669H54.7373C54.7145 182.093 54.5687 182.496 54.2998 182.879C54.0309 183.262 53.6709 183.567 53.2197 183.795C52.7731 184.023 52.2992 184.137 51.7979 184.137C50.7907 184.137 49.9886 183.802 49.3916 183.132C48.7992 182.457 48.5029 181.537 48.5029 180.37V180.158C48.5029 179.438 48.6351 178.798 48.8994 178.237C49.1637 177.677 49.542 177.242 50.0342 176.932C50.5309 176.622 51.1165 176.467 51.791 176.467C52.6204 176.467 53.3086 176.715 53.8555 177.212C54.4069 177.709 54.7008 178.354 54.7373 179.146H53.541C53.5046 178.668 53.3223 178.276 52.9941 177.971C52.6706 177.661 52.2695 177.506 51.791 177.506C51.1484 177.506 50.6494 177.738 50.2939 178.203C49.943 178.663 49.7676 179.331 49.7676 180.206V180.445C49.7676 181.298 49.943 181.954 50.2939 182.414C50.6449 182.874 51.1462 183.104 51.7979 183.104ZM59.126 183.104C59.5771 183.104 59.9714 182.968 60.3086 182.694C60.6458 182.421 60.8327 182.079 60.8691 181.669H62.0654C62.0426 182.093 61.8968 182.496 61.6279 182.879C61.359 183.262 60.999 183.567 60.5479 183.795C60.1012 184.023 59.6273 184.137 59.126 184.137C58.1188 184.137 57.3167 183.802 56.7197 183.132C56.1273 182.457 55.8311 181.537 55.8311 180.37V180.158C55.8311 179.438 55.9632 178.798 56.2275 178.237C56.4919 177.677 56.8701 177.242 57.3623 176.932C57.859 176.622 58.4447 176.467 59.1191 176.467C59.9486 176.467 60.6367 176.715 61.1836 177.212C61.735 177.709 62.029 178.354 62.0654 179.146H60.8691C60.8327 178.668 60.6504 178.276 60.3223 177.971C59.9987 177.661 59.5977 177.506 59.1191 177.506C58.4766 177.506 57.9775 177.738 57.6221 178.203C57.2712 178.663 57.0957 179.331 57.0957 180.206V180.445C57.0957 181.298 57.2712 181.954 57.6221 182.414C57.973 182.874 58.4743 183.104 59.126 183.104ZM66.5566 184.137C65.554 184.137 64.7383 183.809 64.1094 183.152C63.4805 182.492 63.166 181.61 63.166 180.507V180.274C63.166 179.541 63.305 178.887 63.583 178.312C63.8656 177.734 64.2575 177.283 64.7588 176.959C65.2646 176.631 65.8115 176.467 66.3994 176.467C67.361 176.467 68.1084 176.784 68.6416 177.417C69.1748 178.05 69.4414 178.957 69.4414 180.138V180.664H64.4307C64.4489 181.393 64.6608 181.983 65.0664 182.435C65.4766 182.881 65.9961 183.104 66.625 183.104C67.0716 183.104 67.4499 183.013 67.7598 182.831C68.0697 182.649 68.3408 182.407 68.5732 182.106L69.3457 182.708C68.7259 183.66 67.7962 184.137 66.5566 184.137ZM66.3994 177.506C65.889 177.506 65.4606 177.693 65.1143 178.066C64.7679 178.436 64.5537 178.955 64.4717 179.625H68.1768V179.529C68.1403 178.887 67.9671 178.39 67.6572 178.039C67.3473 177.684 66.9281 177.506 66.3994 177.506ZM75.2178 182.038C75.2178 181.696 75.0879 181.432 74.8281 181.245C74.5729 181.054 74.124 180.89 73.4814 180.753C72.8434 180.616 72.3353 180.452 71.957 180.261C71.5833 180.069 71.3053 179.841 71.123 179.577C70.9453 179.313 70.8564 178.998 70.8564 178.634C70.8564 178.028 71.1117 177.515 71.6221 177.096C72.137 176.676 72.7933 176.467 73.5908 176.467C74.4294 176.467 75.1084 176.683 75.6279 177.116C76.152 177.549 76.4141 178.103 76.4141 178.777H75.1426C75.1426 178.431 74.9945 178.132 74.6982 177.882C74.4066 177.631 74.0374 177.506 73.5908 177.506C73.1305 177.506 72.7705 177.606 72.5107 177.807C72.251 178.007 72.1211 178.269 72.1211 178.593C72.1211 178.898 72.2419 179.128 72.4834 179.283C72.7249 179.438 73.1602 179.586 73.7891 179.728C74.4225 179.869 74.9352 180.037 75.3271 180.233C75.7191 180.429 76.0085 180.666 76.1953 180.944C76.3867 181.218 76.4824 181.553 76.4824 181.949C76.4824 182.61 76.2181 183.141 75.6895 183.542C75.1608 183.938 74.4749 184.137 73.6318 184.137C73.0394 184.137 72.5153 184.032 72.0596 183.822C71.6038 183.613 71.2461 183.321 70.9863 182.947C70.7311 182.569 70.6035 182.161 70.6035 181.724H71.8682C71.891 182.147 72.0596 182.485 72.374 182.735C72.693 182.981 73.1123 183.104 73.6318 183.104C74.1104 183.104 74.4932 183.009 74.7803 182.817C75.0719 182.621 75.2178 182.362 75.2178 182.038ZM78.752 184V177.581H77.583V176.604H78.752V175.845C78.752 175.052 78.9639 174.439 79.3877 174.006C79.8115 173.573 80.4108 173.356 81.1855 173.356C81.4772 173.356 81.7666 173.395 82.0537 173.473L81.9854 174.498C81.7712 174.457 81.5433 174.437 81.3018 174.437C80.8916 174.437 80.5749 174.557 80.3516 174.799C80.1283 175.036 80.0166 175.378 80.0166 175.824V176.604H81.5957V177.581H80.0166V184H78.752ZM87.5635 183.269C87.0713 183.847 86.349 184.137 85.3965 184.137C84.6081 184.137 84.0065 183.909 83.5918 183.453C83.1816 182.993 82.9743 182.314 82.9697 181.416V176.604H84.2344V181.382C84.2344 182.503 84.6901 183.063 85.6016 183.063C86.5677 183.063 87.2103 182.703 87.5293 181.983V176.604H88.7939V184H87.5908L87.5635 183.269ZM92.0957 184H90.8311V173.5H92.0957V184ZM95.5 184H94.2354V173.5H95.5V184ZM99.9502 182.147L101.673 176.604H103.026L100.053 185.142C99.5924 186.372 98.861 186.987 97.8584 186.987L97.6191 186.967L97.1475 186.878V185.853L97.4893 185.88C97.9176 185.88 98.2503 185.793 98.4873 185.62C98.7288 185.447 98.9271 185.13 99.082 184.67L99.3623 183.918L96.7236 176.604H98.1045L99.9502 182.147ZM108.823 176.604L108.857 177.424C109.4 176.786 110.131 176.467 111.052 176.467C112.086 176.467 112.79 176.863 113.164 177.656C113.41 177.301 113.729 177.014 114.121 176.795C114.518 176.576 114.985 176.467 115.522 176.467C117.145 176.467 117.97 177.326 117.997 179.044V184H116.732V179.119C116.732 178.59 116.612 178.196 116.37 177.937C116.129 177.672 115.723 177.54 115.153 177.54C114.684 177.54 114.294 177.681 113.984 177.964C113.674 178.242 113.494 178.618 113.444 179.092V184H112.173V179.153C112.173 178.078 111.646 177.54 110.594 177.54C109.764 177.54 109.197 177.893 108.892 178.6V184H107.627V176.604H108.823ZM124.478 184C124.405 183.854 124.345 183.594 124.3 183.221C123.712 183.831 123.01 184.137 122.194 184.137C121.465 184.137 120.866 183.932 120.396 183.521C119.932 183.107 119.699 182.583 119.699 181.949C119.699 181.179 119.991 180.582 120.574 180.158C121.162 179.73 121.987 179.516 123.049 179.516H124.279V178.935C124.279 178.493 124.147 178.142 123.883 177.882C123.618 177.618 123.229 177.485 122.714 177.485C122.263 177.485 121.884 177.599 121.579 177.827C121.274 178.055 121.121 178.331 121.121 178.654H119.85C119.85 178.285 119.979 177.93 120.239 177.588C120.504 177.242 120.859 176.968 121.306 176.768C121.757 176.567 122.251 176.467 122.789 176.467C123.641 176.467 124.309 176.681 124.792 177.109C125.275 177.533 125.526 178.119 125.544 178.866V182.271C125.544 182.95 125.631 183.49 125.804 183.891V184H124.478ZM122.379 183.036C122.775 183.036 123.151 182.934 123.507 182.729C123.862 182.523 124.12 182.257 124.279 181.929V180.411H123.288C121.739 180.411 120.964 180.865 120.964 181.771C120.964 182.168 121.096 182.478 121.36 182.701C121.625 182.924 121.964 183.036 122.379 183.036ZM127.219 180.24C127.219 179.105 127.488 178.194 128.025 177.506C128.563 176.813 129.267 176.467 130.138 176.467C131.004 176.467 131.689 176.763 132.195 177.355V173.5H133.46V184H132.298L132.236 183.207C131.73 183.827 131.026 184.137 130.124 184.137C129.267 184.137 128.568 183.786 128.025 183.084C127.488 182.382 127.219 181.466 127.219 180.336V180.24ZM128.483 180.384C128.483 181.222 128.657 181.879 129.003 182.353C129.349 182.826 129.828 183.063 130.438 183.063C131.241 183.063 131.826 182.703 132.195 181.983V178.586C131.817 177.889 131.236 177.54 130.452 177.54C129.832 177.54 129.349 177.779 129.003 178.258C128.657 178.736 128.483 179.445 128.483 180.384ZM138.498 184.137C137.495 184.137 136.68 183.809 136.051 183.152C135.422 182.492 135.107 181.61 135.107 180.507V180.274C135.107 179.541 135.246 178.887 135.524 178.312C135.807 177.734 136.199 177.283 136.7 176.959C137.206 176.631 137.753 176.467 138.341 176.467C139.302 176.467 140.05 176.784 140.583 177.417C141.116 178.05 141.383 178.957 141.383 180.138V180.664H136.372C136.39 181.393 136.602 181.983 137.008 182.435C137.418 182.881 137.938 183.104 138.566 183.104C139.013 183.104 139.391 183.013 139.701 182.831C140.011 182.649 140.282 182.407 140.515 182.106L141.287 182.708C140.667 183.66 139.738 184.137 138.498 184.137ZM138.341 177.506C137.83 177.506 137.402 177.693 137.056 178.066C136.709 178.436 136.495 178.955 136.413 179.625H140.118V179.529C140.082 178.887 139.909 178.39 139.599 178.039C139.289 177.684 138.869 177.506 138.341 177.506ZM150.892 184C150.819 183.854 150.759 183.594 150.714 183.221C150.126 183.831 149.424 184.137 148.608 184.137C147.879 184.137 147.28 183.932 146.811 183.521C146.346 183.107 146.113 182.583 146.113 181.949C146.113 181.179 146.405 180.582 146.988 180.158C147.576 179.73 148.401 179.516 149.463 179.516H150.693V178.935C150.693 178.493 150.561 178.142 150.297 177.882C150.033 177.618 149.643 177.485 149.128 177.485C148.677 177.485 148.299 177.599 147.993 177.827C147.688 178.055 147.535 178.331 147.535 178.654H146.264C146.264 178.285 146.394 177.93 146.653 177.588C146.918 177.242 147.273 176.968 147.72 176.768C148.171 176.567 148.665 176.467 149.203 176.467C150.055 176.467 150.723 176.681 151.206 177.109C151.689 177.533 151.94 178.119 151.958 178.866V182.271C151.958 182.95 152.045 183.49 152.218 183.891V184H150.892ZM148.793 183.036C149.189 183.036 149.565 182.934 149.921 182.729C150.276 182.523 150.534 182.257 150.693 181.929V180.411H149.702C148.153 180.411 147.378 180.865 147.378 181.771C147.378 182.168 147.51 182.478 147.774 182.701C148.039 182.924 148.378 183.036 148.793 183.036ZM163.661 180.384C163.661 181.509 163.404 182.416 162.889 183.104C162.374 183.793 161.676 184.137 160.797 184.137C159.899 184.137 159.193 183.852 158.678 183.282V186.844H157.413V176.604H158.568L158.63 177.424C159.145 176.786 159.86 176.467 160.776 176.467C161.665 176.467 162.367 176.802 162.882 177.472C163.401 178.142 163.661 179.074 163.661 180.268V180.384ZM162.396 180.24C162.396 179.406 162.219 178.748 161.863 178.265C161.508 177.782 161.02 177.54 160.4 177.54C159.635 177.54 159.061 177.88 158.678 178.559V182.093C159.056 182.767 159.635 183.104 160.414 183.104C161.02 183.104 161.501 182.865 161.856 182.387C162.216 181.904 162.396 181.188 162.396 180.24ZM169.841 184C169.768 183.854 169.709 183.594 169.663 183.221C169.075 183.831 168.373 184.137 167.558 184.137C166.828 184.137 166.229 183.932 165.76 183.521C165.295 183.107 165.062 182.583 165.062 181.949C165.062 181.179 165.354 180.582 165.938 180.158C166.525 179.73 167.35 179.516 168.412 179.516H169.643V178.935C169.643 178.493 169.51 178.142 169.246 177.882C168.982 177.618 168.592 177.485 168.077 177.485C167.626 177.485 167.248 177.599 166.942 177.827C166.637 178.055 166.484 178.331 166.484 178.654H165.213C165.213 178.285 165.343 177.93 165.603 177.588C165.867 177.242 166.222 176.968 166.669 176.768C167.12 176.567 167.615 176.467 168.152 176.467C169.005 176.467 169.672 176.681 170.155 177.109C170.638 177.533 170.889 178.119 170.907 178.866V182.271C170.907 182.95 170.994 183.49 171.167 183.891V184H169.841ZM167.742 183.036C168.139 183.036 168.515 182.934 168.87 182.729C169.226 182.523 169.483 182.257 169.643 181.929V180.411H168.651C167.102 180.411 166.327 180.865 166.327 181.771C166.327 182.168 166.459 182.478 166.724 182.701C166.988 182.924 167.327 183.036 167.742 183.036ZM175.2 182.147L176.923 176.604H178.276L175.303 185.142C174.842 186.372 174.111 186.987 173.108 186.987L172.869 186.967L172.397 186.878V185.853L172.739 185.88C173.168 185.88 173.5 185.793 173.737 185.62C173.979 185.447 174.177 185.13 174.332 184.67L174.612 183.918L171.974 176.604H173.354L175.2 182.147ZM180.601 176.604L180.635 177.424C181.177 176.786 181.909 176.467 182.829 176.467C183.864 176.467 184.568 176.863 184.941 177.656C185.188 177.301 185.507 177.014 185.898 176.795C186.295 176.576 186.762 176.467 187.3 176.467C188.922 176.467 189.747 177.326 189.774 179.044V184H188.51V179.119C188.51 178.59 188.389 178.196 188.147 177.937C187.906 177.672 187.5 177.54 186.931 177.54C186.461 177.54 186.072 177.681 185.762 177.964C185.452 178.242 185.272 178.618 185.222 179.092V184H183.95V179.153C183.95 178.078 183.424 177.54 182.371 177.54C181.542 177.54 180.974 177.893 180.669 178.6V184H179.404V176.604H180.601ZM194.758 184.137C193.755 184.137 192.939 183.809 192.311 183.152C191.682 182.492 191.367 181.61 191.367 180.507V180.274C191.367 179.541 191.506 178.887 191.784 178.312C192.067 177.734 192.459 177.283 192.96 176.959C193.466 176.631 194.013 176.467 194.601 176.467C195.562 176.467 196.31 176.784 196.843 177.417C197.376 178.05 197.643 178.957 197.643 180.138V180.664H192.632C192.65 181.393 192.862 181.983 193.268 182.435C193.678 182.881 194.197 183.104 194.826 183.104C195.273 183.104 195.651 183.013 195.961 182.831C196.271 182.649 196.542 182.407 196.774 182.106L197.547 182.708C196.927 183.66 195.997 184.137 194.758 184.137ZM194.601 177.506C194.09 177.506 193.662 177.693 193.315 178.066C192.969 178.436 192.755 178.955 192.673 179.625H196.378V179.529C196.341 178.887 196.168 178.39 195.858 178.039C195.549 177.684 195.129 177.506 194.601 177.506ZM200.309 176.604L200.35 177.533C200.915 176.822 201.653 176.467 202.564 176.467C204.128 176.467 204.916 177.349 204.93 179.112V184H203.665V179.105C203.66 178.572 203.537 178.178 203.296 177.923C203.059 177.668 202.688 177.54 202.182 177.54C201.771 177.54 201.411 177.649 201.102 177.868C200.792 178.087 200.55 178.374 200.377 178.729V184H199.112V176.604H200.309ZM208.553 174.812V176.604H209.934V177.581H208.553V182.168C208.553 182.464 208.614 182.688 208.737 182.838C208.86 182.984 209.07 183.057 209.366 183.057C209.512 183.057 209.713 183.029 209.968 182.975V184C209.635 184.091 209.312 184.137 208.997 184.137C208.432 184.137 208.006 183.966 207.719 183.624C207.432 183.282 207.288 182.797 207.288 182.168V177.581H205.941V176.604H207.288V174.812H208.553ZM211.376 185.982L210.658 185.49C211.087 184.893 211.31 184.278 211.328 183.645V182.503H212.565V183.494C212.565 183.954 212.451 184.415 212.224 184.875C212 185.335 211.718 185.704 211.376 185.982ZM71.5674 204.137C70.5648 204.137 69.749 203.809 69.1201 203.152C68.4912 202.492 68.1768 201.61 68.1768 200.507V200.274C68.1768 199.541 68.3158 198.887 68.5938 198.312C68.8763 197.734 69.2682 197.283 69.7695 196.959C70.2754 196.631 70.8223 196.467 71.4102 196.467C72.3717 196.467 73.1191 196.784 73.6523 197.417C74.1855 198.05 74.4521 198.957 74.4521 200.138V200.664H69.4414C69.4596 201.393 69.6715 201.983 70.0771 202.435C70.4873 202.881 71.0068 203.104 71.6357 203.104C72.0824 203.104 72.4606 203.013 72.7705 202.831C73.0804 202.649 73.3516 202.407 73.584 202.106L74.3564 202.708C73.7367 203.66 72.807 204.137 71.5674 204.137ZM71.4102 197.506C70.8997 197.506 70.4714 197.693 70.125 198.066C69.7786 198.436 69.5645 198.955 69.4824 199.625H73.1875V199.529C73.151 198.887 72.9779 198.39 72.668 198.039C72.3581 197.684 71.9388 197.506 71.4102 197.506ZM77.1182 196.604L77.1592 197.533C77.7243 196.822 78.4626 196.467 79.374 196.467C80.9372 196.467 81.7256 197.349 81.7393 199.112V204H80.4746V199.105C80.4701 198.572 80.347 198.178 80.1055 197.923C79.8685 197.668 79.4971 197.54 78.9912 197.54C78.5811 197.54 78.221 197.649 77.9111 197.868C77.6012 198.087 77.3597 198.374 77.1865 198.729V204H75.9219V196.604H77.1182ZM84.9521 196.604V204.854C84.9521 206.276 84.3073 206.987 83.0176 206.987C82.7396 206.987 82.4821 206.946 82.2451 206.864V205.853C82.391 205.889 82.5824 205.907 82.8193 205.907C83.1019 205.907 83.3161 205.83 83.4619 205.675C83.6123 205.524 83.6875 205.26 83.6875 204.882V196.604H84.9521ZM83.5576 194.642C83.5576 194.441 83.6191 194.27 83.7422 194.129C83.8698 193.983 84.0544 193.91 84.2959 193.91C84.542 193.91 84.7288 193.981 84.8564 194.122C84.984 194.263 85.0479 194.437 85.0479 194.642C85.0479 194.847 84.984 195.018 84.8564 195.154C84.7288 195.291 84.542 195.359 84.2959 195.359C84.0498 195.359 83.8652 195.291 83.7422 195.154C83.6191 195.018 83.5576 194.847 83.5576 194.642ZM86.6611 200.233C86.6611 199.509 86.8024 198.857 87.085 198.278C87.3721 197.7 87.7686 197.253 88.2744 196.938C88.7848 196.624 89.3659 196.467 90.0176 196.467C91.0247 196.467 91.8382 196.815 92.458 197.513C93.0824 198.21 93.3945 199.137 93.3945 200.295V200.384C93.3945 201.104 93.2555 201.751 92.9775 202.325C92.7041 202.895 92.3099 203.339 91.7949 203.658C91.2845 203.977 90.6966 204.137 90.0312 204.137C89.0286 204.137 88.2152 203.788 87.5908 203.091C86.971 202.394 86.6611 201.471 86.6611 200.322V200.233ZM87.9326 200.384C87.9326 201.204 88.1217 201.863 88.5 202.359C88.8828 202.856 89.3932 203.104 90.0312 203.104C90.6738 203.104 91.1842 202.854 91.5625 202.353C91.9408 201.847 92.1299 201.14 92.1299 200.233C92.1299 199.422 91.9362 198.766 91.5488 198.265C91.166 197.759 90.6556 197.506 90.0176 197.506C89.3932 197.506 88.8896 197.754 88.5068 198.251C88.124 198.748 87.9326 199.459 87.9326 200.384ZM97.291 202.147L99.0137 196.604H100.367L97.3936 205.142C96.9333 206.372 96.2018 206.987 95.1992 206.987L94.96 206.967L94.4883 206.878V205.853L94.8301 205.88C95.2585 205.88 95.5911 205.793 95.8281 205.62C96.0697 205.447 96.2679 205.13 96.4229 204.67L96.7031 203.918L94.0645 196.604H95.4453L97.291 202.147ZM112.521 202.694C112.184 203.177 111.713 203.54 111.106 203.781C110.505 204.018 109.803 204.137 109.001 204.137C108.19 204.137 107.47 203.948 106.841 203.569C106.212 203.187 105.724 202.644 105.378 201.942C105.036 201.241 104.861 200.427 104.852 199.502V198.634C104.852 197.134 105.2 195.972 105.897 195.147C106.599 194.323 107.584 193.91 108.851 193.91C109.89 193.91 110.726 194.177 111.359 194.71C111.993 195.239 112.38 195.991 112.521 196.966H111.209C110.963 195.649 110.179 194.99 108.857 194.99C107.978 194.99 107.31 195.3 106.854 195.92C106.403 196.535 106.175 197.428 106.171 198.6V199.413C106.171 200.53 106.426 201.418 106.937 202.079C107.447 202.735 108.137 203.063 109.008 203.063C109.5 203.063 109.931 203.009 110.3 202.899C110.669 202.79 110.974 202.605 111.216 202.346V200.11H108.912V199.044H112.521V202.694ZM119.084 203.269C118.592 203.847 117.869 204.137 116.917 204.137C116.129 204.137 115.527 203.909 115.112 203.453C114.702 202.993 114.495 202.314 114.49 201.416V196.604H115.755V201.382C115.755 202.503 116.211 203.063 117.122 203.063C118.088 203.063 118.731 202.703 119.05 201.983V196.604H120.314V204H119.111L119.084 203.269ZM125.817 197.738C125.626 197.706 125.419 197.69 125.195 197.69C124.366 197.69 123.803 198.044 123.507 198.75V204H122.242V196.604H123.473L123.493 197.458C123.908 196.797 124.496 196.467 125.257 196.467C125.503 196.467 125.69 196.499 125.817 196.562V197.738ZM128.36 204H127.096V193.5H128.36V204ZM131.765 204H130.5V196.604H131.765V204ZM130.397 194.642C130.397 194.437 130.459 194.263 130.582 194.122C130.71 193.981 130.896 193.91 131.143 193.91C131.389 193.91 131.576 193.981 131.703 194.122C131.831 194.263 131.895 194.437 131.895 194.642C131.895 194.847 131.831 195.018 131.703 195.154C131.576 195.291 131.389 195.359 131.143 195.359C130.896 195.359 130.71 195.291 130.582 195.154C130.459 195.018 130.397 194.847 130.397 194.642ZM138.102 202.038C138.102 201.696 137.972 201.432 137.712 201.245C137.457 201.054 137.008 200.89 136.365 200.753C135.727 200.616 135.219 200.452 134.841 200.261C134.467 200.069 134.189 199.841 134.007 199.577C133.829 199.313 133.74 198.998 133.74 198.634C133.74 198.028 133.995 197.515 134.506 197.096C135.021 196.676 135.677 196.467 136.475 196.467C137.313 196.467 137.992 196.683 138.512 197.116C139.036 197.549 139.298 198.103 139.298 198.777H138.026C138.026 198.431 137.878 198.132 137.582 197.882C137.29 197.631 136.921 197.506 136.475 197.506C136.014 197.506 135.654 197.606 135.395 197.807C135.135 198.007 135.005 198.269 135.005 198.593C135.005 198.898 135.126 199.128 135.367 199.283C135.609 199.438 136.044 199.586 136.673 199.728C137.306 199.869 137.819 200.037 138.211 200.233C138.603 200.429 138.892 200.666 139.079 200.944C139.271 201.218 139.366 201.553 139.366 201.949C139.366 202.61 139.102 203.141 138.573 203.542C138.045 203.938 137.359 204.137 136.516 204.137C135.923 204.137 135.399 204.032 134.943 203.822C134.488 203.613 134.13 203.321 133.87 202.947C133.615 202.569 133.487 202.161 133.487 201.724H134.752C134.775 202.147 134.943 202.485 135.258 202.735C135.577 202.981 135.996 203.104 136.516 203.104C136.994 203.104 137.377 203.009 137.664 202.817C137.956 202.621 138.102 202.362 138.102 202.038ZM142.278 197.499C142.839 196.811 143.568 196.467 144.466 196.467C146.029 196.467 146.817 197.349 146.831 199.112V204H145.566V199.105C145.562 198.572 145.439 198.178 145.197 197.923C144.96 197.668 144.589 197.54 144.083 197.54C143.673 197.54 143.313 197.649 143.003 197.868C142.693 198.087 142.451 198.374 142.278 198.729V204H141.014V193.5H142.278V197.499ZM148.752 203.337C148.752 203.118 148.816 202.936 148.943 202.79C149.076 202.644 149.271 202.571 149.531 202.571C149.791 202.571 149.987 202.644 150.119 202.79C150.256 202.936 150.324 203.118 150.324 203.337C150.324 203.547 150.256 203.722 150.119 203.863C149.987 204.005 149.791 204.075 149.531 204.075C149.271 204.075 149.076 204.005 148.943 203.863C148.816 203.722 148.752 203.547 148.752 203.337Z" fill="white"/>
</svg>
